<svg width="84" height="84" viewBox="0 0 84 84" fill="none" xmlns="http://www.w3.org/2000/svg">
<path d="M42 62.8333C47.7639 62.8333 52.6771 60.8021 56.7396 56.7396C60.8021 52.6771 62.8333 47.7639 62.8333 42C62.8333 36.2361 60.8021 31.3229 56.7396 27.2604C52.6771 23.1979 47.7639 21.1666 42 21.1666C36.2361 21.1666 31.3229 23.1979 27.2604 27.2604C23.1979 31.3229 21.1666 36.2361 21.1666 42C21.1666 47.7639 23.1979 52.6771 27.2604 56.7396C31.3229 60.8021 36.2361 62.8333 42 62.8333ZM42 83.6666C36.2361 83.6666 30.8194 82.5729 25.75 80.3854C20.6805 78.1979 16.2708 75.2291 12.5208 71.4791C8.77081 67.7291 5.80206 63.3194 3.61456 58.25C1.42706 53.1805 0.333313 47.7639 0.333313 42C0.333313 36.2361 1.42706 30.8194 3.61456 25.75C5.80206 20.6805 8.77081 16.2708 12.5208 12.5208C16.2708 8.77081 20.6805 5.80206 25.75 3.61456C30.8194 1.42706 36.2361 0.333313 42 0.333313C47.7639 0.333313 53.1805 1.42706 58.25 3.61456C63.3194 5.80206 67.7291 8.77081 71.4791 12.5208C75.2291 16.2708 78.1979 20.6805 80.3854 25.75C82.5729 30.8194 83.6666 36.2361 83.6666 42C83.6666 47.7639 82.5729 53.1805 80.3854 58.25C78.1979 63.3194 75.2291 67.7291 71.4791 71.4791C67.7291 75.2291 63.3194 78.1979 58.25 80.3854C53.1805 82.5729 47.7639 83.6666 42 83.6666ZM42 75.3333C51.3055 75.3333 59.1875 72.1041 65.6458 65.6458C72.1041 59.1875 75.3333 51.3055 75.3333 42C75.3333 32.6944 72.1041 24.8125 65.6458 18.3541C59.1875 11.8958 51.3055 8.66665 42 8.66665C32.6944 8.66665 24.8125 11.8958 18.3541 18.3541C11.8958 24.8125 8.66665 32.6944 8.66665 42C8.66665 51.3055 11.8958 59.1875 18.3541 65.6458C24.8125 72.1041 32.6944 75.3333 42 75.3333Z" fill="#1D1B20"/>
</svg>
